<svg xmlns="http://www.w3.org/2000/svg"  viewBox="0 0 40 40" width="160px" height="160px"><path fill="#f78f8f" d="M20,38.5C9.799,38.5,1.5,30.201,1.5,20S9.799,1.5,20,1.5S38.5,9.799,38.5,20S30.201,38.5,20,38.5z"/><path fill="#c74343" d="M20,2c9.925,0,18,8.075,18,18s-8.075,18-18,18S2,29.925,2,20S10.075,2,20,2 M20,1 C9.455,1,1,9.455,1,20s8.455,19,19,19s19-8.455,19-19S30.545,1,20,1L20,1z"/><path fill="#f4b5b5" d="M35.56,29.008L20,20l9.008,15.56C31.721,33.982,33.982,31.721,35.56,29.008z"/><path fill="#f76d6d" d="M35.56,29.008c-1.577,2.713-3.838,4.974-6.551,6.551l0.515,0.889	c0.001-0.001,0.002-0.001,0.003-0.002c0.683-0.394,1.336-0.832,1.96-1.305c0.046-0.035,0.093-0.068,0.138-0.103	c0.306-0.236,0.606-0.482,0.896-0.736c0.028-0.024,0.054-0.05,0.082-0.074c0.575-0.509,1.119-1.053,1.628-1.628	c0.024-0.027,0.048-0.052,0.072-0.079c0.255-0.291,0.5-0.591,0.737-0.898c0.034-0.044,0.067-0.09,0.101-0.135	c0.474-0.626,0.914-1.281,1.309-1.965L35.56,29.008z"/><path fill="#f4b5b5" d="M4.44,10.992L20,20L10.992,4.44C8.279,6.018,6.018,8.279,4.44,10.992z"/><path fill="#f76d6d" d="M4.44,10.992c1.577-2.713,3.838-4.974,6.551-6.551l-0.515-0.889	c-0.001,0.001-0.002,0.001-0.003,0.002c-0.683,0.394-1.336,0.832-1.96,1.305C8.468,4.893,8.421,4.926,8.376,4.961	C8.07,5.198,7.77,5.443,7.48,5.697c-0.028,0.024-0.054,0.05-0.082,0.074C6.823,6.281,6.279,6.824,5.77,7.4	C5.746,7.426,5.721,7.452,5.698,7.479C5.443,7.77,5.198,8.07,4.961,8.377C4.927,8.421,4.894,8.467,4.86,8.512	c-0.474,0.626-0.914,1.281-1.309,1.965L4.44,10.992z"/><path fill="#8bb7f0" d="M20,27.5c-4.136,0-7.5-3.364-7.5-7.5s3.364-7.5,7.5-7.5s7.5,3.364,7.5,7.5S24.136,27.5,20,27.5z"/><path fill="#4e7ab5" d="M20,13c3.86,0,7,3.14,7,7s-3.14,7-7,7s-7-3.14-7-7S16.14,13,20,13 M20,12c-4.4,0-8,3.6-8,8 s3.6,8,8,8s8-3.6,8-8S24.4,12,20,12L20,12z"/><path fill="#fff" d="M20,35c-8.25,0-15-6.75-15-15S11.75,5,20,5s15,6.75,15,15S28.25,35,20,35z"/><path fill="#f78f8f" d="M20,31.5c-6.448,0-11.5-5.051-11.5-11.5S13.552,8.5,20,8.5S31.5,13.551,31.5,20S26.448,31.5,20,31.5 z"/><path fill="#c74343" d="M20,9c6.168,0,11,4.832,11,11s-4.832,11-11,11S9,26.168,9,20S13.832,9,20,9 M20,8 C13.3,8,8,13.3,8,20s5.3,12,12,12s12-5.3,12-12S26.7,8,20,8L20,8z"/><path fill="#f4b5b5" d="M10.454,14.474L20,20l-5.526-9.546C12.796,11.412,11.412,12.796,10.454,14.474z"/><path fill="#f76d6d" d="M14.474,10.454l-0.496-0.857c-0.446,0.256-0.873,0.542-1.279,0.851	c-0.015,0.011-0.03,0.022-0.044,0.033c-0.816,0.627-1.546,1.357-2.172,2.172c-0.011,0.015-0.022,0.03-0.034,0.045	c-0.309,0.406-0.594,0.832-0.85,1.278l0,0l0.857,0.496C11.412,12.796,12.796,11.412,14.474,10.454z"/><path fill="#8bb7f0" d="M20,27.5c-4.136,0-7.5-3.364-7.5-7.5s3.364-7.5,7.5-7.5s7.5,3.364,7.5,7.5S24.136,27.5,20,27.5z"/><path fill="#4e7ab5" d="M20,13c3.86,0,7,3.14,7,7s-3.14,7-7,7s-7-3.14-7-7S16.14,13,20,13 M20,12c-4.4,0-8,3.6-8,8 s3.6,8,8,8s8-3.6,8-8S24.4,12,20,12L20,12z"/><path fill="#9fcdff" d="M13.949,16.497L20,20l-3.503-6.051C15.442,14.562,14.562,15.442,13.949,16.497z"/><path fill="#7ca3ce" d="M16.497,13.949l-0.498-0.86c-0.297,0.173-0.582,0.366-0.853,0.574	c-0.006,0.004-0.011,0.008-0.017,0.013c-0.544,0.42-1.033,0.909-1.453,1.453c-0.004,0.006-0.008,0.011-0.013,0.017	c-0.208,0.271-0.401,0.556-0.574,0.853l0,0l0.86,0.498C14.562,15.442,15.442,14.562,16.497,13.949z"/><path fill="#f4b5b5" d="M29.546,25.526L20,20l5.526,9.546C27.204,28.588,28.588,27.204,29.546,25.526z"/><path fill="#f76d6d" d="M25.526,29.546l0.496,0.857c0.446-0.256,0.873-0.542,1.279-0.851c0.015-0.011,0.03-0.022,0.044-0.033	c0.816-0.627,1.546-1.357,2.172-2.172c0.011-0.015,0.022-0.03,0.034-0.045c0.309-0.406,0.594-0.832,0.85-1.278l0,0l-0.857-0.496	C28.588,27.204,27.204,28.588,25.526,29.546z"/><path fill="#9fcdff" d="M26.051,23.503L20,20l3.503,6.051C24.558,25.438,25.438,24.558,26.051,23.503z"/><path fill="#7ca3ce" d="M23.503,26.051l0.498,0.86c0.297-0.173,0.582-0.366,0.853-0.574c0.006-0.004,0.011-0.008,0.017-0.013	c0.544-0.42,1.033-0.909,1.453-1.453c0.004-0.006,0.008-0.011,0.013-0.017c0.208-0.271,0.401-0.556,0.574-0.853l0,0l-0.86-0.498	C25.438,24.558,24.558,25.438,23.503,26.051z"/><path fill="#fff" d="M16.502 25.093L17.857 20.788 14.349 17.998 18.733 17.998 20.009 14.093 21.364 17.998 25.828 17.998 22.32 20.788 23.596 25.013 20.009 22.462z"/></svg>