<?xml version="1.0" standalone="no"?>
<!DOCTYPE svg PUBLIC "-//W3C//DTD SVG 20010904//EN"
 "http://www.w3.org/TR/2001/REC-SVG-20010904/DTD/svg10.dtd">
<svg version="1.0" xmlns="http://www.w3.org/2000/svg"
 width="512.000000pt" height="512.000000pt" viewBox="0 0 512.000000 512.000000"
 preserveAspectRatio="xMidYMid meet">
<metadata>
Created by potrace 1.14, written by Peter Selinger 2001-2017
</metadata>
<g transform="translate(0.000000,512.000000) scale(0.100000,-0.100000)"
fill="#000000" stroke="none">
<path d="M1670 4970 c-11 -11 -20 -32 -21 -47 0 -16 -2 -37 -4 -48 -2 -11 -7
-45 -10 -75 -3 -30 -7 -71 -10 -90 -2 -19 -7 -56 -10 -82 -3 -27 -7 -69 -10
-95 -3 -27 -8 -64 -10 -83 -3 -19 -8 -62 -11 -95 -3 -33 -8 -68 -9 -77 -2 -9
-7 -48 -10 -85 -4 -37 -8 -79 -11 -93 -2 -14 -7 -61 -10 -105 -3 -44 -7 -90
-9 -103 -13 -76 -18 -380 -19 -1095 l-1 -808 -299 -185 c-164 -101 -319 -195
-345 -209 -25 -13 -127 -50 -226 -81 -99 -31 -202 -68 -230 -81 -139 -70 -282
-217 -331 -340 -8 -21 -18 -45 -23 -54 -8 -14 -35 -128 -46 -193 -25 -155 -23
-158 132 -221 65 -26 142 -58 171 -71 29 -13 55 -24 58 -24 4 0 74 -24 158
-54 211 -75 514 -162 701 -201 79 -16 236 -46 265 -51 19 -2 46 -7 60 -10 47
-11 59 -13 122 -19 35 -3 90 -10 123 -15 33 -5 92 -12 130 -16 39 -3 84 -7
100 -9 164 -19 730 -26 910 -11 290 23 327 27 415 41 14 2 61 9 105 14 44 6
91 13 105 16 14 3 52 10 85 15 413 73 862 205 1283 381 202 83 196 72 157 299
-23 130 -96 276 -187 371 -105 110 -200 161 -448 238 -91 29 -183 60 -205 70
-32 15 -387 232 -612 374 -42 27 -43 28 -43 85 1 320 -9 1754 -13 1777 -3 17
-8 71 -12 120 -3 50 -12 142 -20 205 -8 63 -22 178 -30 255 -9 77 -18 151 -20
165 -2 14 -6 52 -10 85 -25 247 -35 300 -56 318 -52 42 -74 16 -164 -196 l-79
-185 -59 29 c-86 44 -249 96 -352 113 -132 21 -351 18 -490 -9 -109 -20 -214
-55 -309 -102 -37 -19 -69 -33 -70 -31 -9 16 -36 77 -91 207 -35 85 -72 162
-81 172 -22 25 -49 24 -74 -1z"/>
</g>
</svg>
